<?xml version="1.0" encoding="UTF-8" standalone="no"?>
<!-- Created with Inkscape (http://www.inkscape.org/) -->

<svg
   xmlns:dc="http://purl.org/dc/elements/1.1/"
   xmlns:cc="http://creativecommons.org/ns#"
   xmlns:rdf="http://www.w3.org/1999/02/22-rdf-syntax-ns#"
   xmlns:svg="http://www.w3.org/2000/svg"
   xmlns="http://www.w3.org/2000/svg"
   xmlns:sodipodi="http://sodipodi.sourceforge.net/DTD/sodipodi-0.dtd"
   xmlns:inkscape="http://www.inkscape.org/namespaces/inkscape"
   id="svg2"
   version="1.1"
   inkscape:version="0.91 r13725"
   xml:space="preserve"
   width="801.9436"
   height="201.8299"
   viewBox="0 0 801.94362 201.82989"
   sodipodi:docname="logo-waziup-white.svg"><metadata
     id="metadata8"><rdf:RDF><cc:Work
         rdf:about=""><dc:format>image/svg+xml</dc:format><dc:type
           rdf:resource="http://purl.org/dc/dcmitype/StillImage" /><dc:title></dc:title></cc:Work></rdf:RDF></metadata><defs
     id="defs6"><clipPath
       clipPathUnits="userSpaceOnUse"
       id="clipPath16"><path
         d="m 0,595.28 595.28,0 L 595.28,0 0,0 0,595.28 Z"
         id="path18"
         inkscape:connector-curvature="0" /></clipPath></defs><sodipodi:namedview
     pagecolor="#ffffff"
     bordercolor="#666666"
     borderopacity="1"
     objecttolerance="10"
     gridtolerance="10"
     guidetolerance="10"
     inkscape:pageopacity="0"
     inkscape:pageshadow="2"
     inkscape:window-width="1867"
     inkscape:window-height="1056"
     id="namedview4"
     showgrid="false"
     inkscape:zoom="0.63432336"
     inkscape:cx="421.86607"
     inkscape:cy="234.84296"
     inkscape:window-x="53"
     inkscape:window-y="24"
     inkscape:window-maximized="1"
     inkscape:current-layer="g12"
     units="px"
     fit-margin-top="0"
     fit-margin-left="0"
     fit-margin-right="0"
     fit-margin-bottom="0" /><g
     id="g10"
     inkscape:groupmode="layer"
     inkscape:label="Logo-Waziup-V4 (1)"
     transform="matrix(1.25,0,0,-1.25,-94.044067,459.56488)"><g
       id="g12"
       transform="translate(-5.0447456,25.223728)"><g
         id="g14"
         clip-path="url(#clipPath16)"
         transform="matrix(1.4757877,0,0,1.6621193,-38.196237,-233.01697)"><g
           id="g20"
           transform="translate(354.1562,300.5928)"><path
             d="m 0,0 c 2.703,-1.123 4.773,-2.579 5.791,-4.31 l 0,5.628 c 0,4.747 -9.303,8.594 -20.777,8.594 -11.475,0 -20.777,-3.847 -20.777,-8.594 l 0,-5.622 c 1.021,1.727 3.088,3.181 5.788,4.304 3.884,1.603 9.16,2.571 14.989,2.575 C -9.162,2.571 -3.882,1.603 0,0"
             style="fill:#d6471a;fill-opacity:1;fill-rule:nonzero;stroke:none"
             id="path22"
             inkscape:connector-curvature="0" /></g><g
           id="g24"
           transform="translate(504.9473,266.0645)"><path
             d="m 0,0 c 6.266,8.055 10.053,18.178 10.053,29.125 0,11.431 -4.063,21.896 -10.81,30.158 -1.309,1.584 -3.72,1.791 -5.233,0.346 L -6.817,58.871 C -8.194,57.563 -8.331,55.359 -7.161,53.914 -1.653,47.166 1.652,38.559 1.652,29.195 1.652,20.174 -1.446,11.842 -6.541,5.232 -7.712,3.717 -7.505,1.584 -6.06,0.344 l 0.827,-0.758 C -3.718,-1.859 -1.309,-1.654 0,0"
             style="fill:#f35e19;fill-opacity:1;fill-rule:nonzero;stroke:none"
             id="path26"
             inkscape:connector-curvature="0" /></g><g
           id="g28"
           transform="translate(495.8584,275.0156)"><path
             d="m 0,0 c 4.062,5.715 6.472,12.668 6.472,20.174 0,7.849 -2.618,15.148 -7.023,21.002 -1.308,1.72 -3.787,1.996 -5.371,0.482 l -0.826,-0.759 c -1.377,-1.307 -1.516,-3.374 -0.413,-4.888 3.305,-4.407 5.302,-9.915 5.302,-15.837 0,-5.715 -1.79,-11.016 -4.889,-15.285 -1.033,-1.516 -0.757,-3.58 0.62,-4.752 l 0.826,-0.688 C -3.787,-2.066 -1.309,-1.721 0,0"
             style="fill:#f35e19;fill-opacity:1;fill-rule:nonzero;stroke:none"
             id="path30"
             inkscape:connector-curvature="0" /></g><g
           id="g32"
           transform="translate(485.8057,284.3105)"><path
             d="m 0,0 c 1.928,3.168 3.029,6.887 3.029,10.879 0,4.201 -1.239,8.195 -3.374,11.5 -1.239,1.928 -3.855,2.271 -5.509,0.756 L -6.68,22.379 c -1.238,-1.172 -1.584,-3.098 -0.62,-4.545 1.24,-1.996 1.997,-4.406 1.997,-6.955 0,-2.34 -0.62,-4.543 -1.72,-6.473 -0.895,-1.513 -0.621,-3.373 0.688,-4.545 l 0.826,-0.756 C -3.856,-2.34 -1.171,-1.928 0,0"
             style="fill:#f35e19;fill-opacity:1;fill-rule:nonzero;stroke:none"
             id="path34"
             inkscape:connector-curvature="0" /></g><g
           id="g36"
           transform="translate(470.3213,295.3965)"><path
             d="m 0,0 c 0,-2.32 -1.88,-4.199 -4.2,-4.199 -2.321,0 -4.199,1.879 -4.199,4.199 0,2.319 1.878,4.199 4.199,4.199 C -1.88,4.199 0,2.319 0,0"
             style="fill:#f35e19;fill-opacity:1;fill-rule:nonzero;stroke:none"
             id="path38"
             inkscape:connector-curvature="0" /></g><g
           id="g40"
           transform="translate(400.4326,327.5273)"><path
             d="m 0,0 c 1.693,0 3.127,-0.604 4.299,-1.808 1.173,-1.206 1.759,-2.655 1.759,-4.348 l 0,-25.404 c 0,-4.298 -0.83,-8.354 -2.492,-12.165 -1.661,-3.81 -3.908,-7.132 -6.742,-9.965 -2.833,-2.834 -6.155,-5.081 -9.966,-6.743 -3.81,-1.661 -7.865,-2.491 -12.165,-2.491 -4.364,0 -8.451,0.83 -12.261,2.491 -3.811,1.662 -7.133,3.909 -9.967,6.743 -2.833,2.833 -5.08,6.155 -6.741,9.965 -1.662,3.811 -2.493,7.867 -2.493,12.165 l 0,25.404 c 0,1.693 0.602,3.142 1.808,4.348 1.205,1.204 2.653,1.808 4.349,1.808 1.692,0 3.126,-0.602 4.299,-1.805 1.172,-1.203 1.758,-2.648 1.758,-4.339 l 0,-25.355 c 0,-2.665 0.504,-5.152 1.515,-7.461 1.009,-2.308 2.377,-4.339 4.103,-6.094 1.726,-1.756 3.762,-3.137 6.107,-4.145 2.346,-1.008 4.852,-1.511 7.523,-1.511 2.605,0 5.081,0.503 7.426,1.511 2.346,1.008 4.398,2.389 6.156,4.145 1.759,1.755 3.142,3.786 4.153,6.094 1.009,2.309 1.514,4.796 1.514,7.461 l -0.097,0 0,25.355 c 0,1.691 0.601,3.136 1.807,4.339 C -3.144,-0.602 -1.694,0 0,0"
             style="fill:#abadac;fill-opacity:1;fill-rule:nonzero;stroke:none"
             id="path42"
             inkscape:connector-curvature="0" /></g><g
           id="g44"
           transform="translate(460.3926,294.6973)"><path
             d="m 0,0 c 0.325,4.559 -0.813,8.662 -3.415,12.312 -1.301,1.887 -2.879,3.483 -4.732,4.788 -1.854,1.301 -3.854,2.246 -6,2.833 -4.424,1.236 -8.686,0.943 -12.784,-0.88 0.523,0.259 1.043,0.504 1.566,0.733 0.521,0.228 1.044,0.44 1.566,0.635 -0.652,-0.261 -1.287,-0.523 -1.905,-0.782 -0.62,-0.26 -1.222,-0.554 -1.808,-0.879 -2.411,-1.043 -4.495,-2.606 -6.254,-4.69 -2.28,-2.672 -3.761,-5.733 -4.445,-9.184 -0.684,-3.453 -0.439,-6.84 0.732,-10.162 0.913,-2.476 2.28,-4.69 4.105,-6.644 1.822,-1.954 3.972,-3.485 6.448,-4.593 2.474,-1.042 5.044,-1.563 7.71,-1.563 2.665,0 5.235,0.553 7.706,1.661 1.04,0.52 2.031,1.075 2.975,1.661 0.943,0.587 1.838,1.271 2.683,2.052 1.691,1.693 3.055,3.631 4.096,5.813 C -0.716,-4.707 -0.131,-2.41 0,0 m -1.584,27.261 c 2.217,-1.499 4.19,-3.241 5.92,-5.228 1.728,-1.988 3.181,-4.137 4.354,-6.449 1.174,-2.313 2.072,-4.755 2.692,-7.327 0.62,-2.574 0.896,-5.164 0.832,-7.769 -0.132,-3.321 -0.75,-6.562 -1.857,-9.721 -1.108,-3.161 -2.671,-6.075 -4.69,-8.745 -2.54,-3.322 -5.635,-6.009 -9.282,-8.061 -3.649,-2.052 -7.524,-3.339 -11.627,-3.859 -4.169,-0.521 -8.256,-0.211 -12.262,0.928 -4.007,1.139 -7.671,2.947 -10.992,5.423 l 0,0.098 0,-16.122 c 0,-1.694 -0.593,-3.127 -1.775,-4.299 -1.181,-1.173 -2.625,-1.759 -4.333,-1.759 -1.706,0 -3.152,0.586 -4.334,1.759 -1.181,1.172 -1.772,2.605 -1.772,4.299 l 0,40.744 0,0.586 c 0,0.52 0.016,1.026 0.049,1.514 0.032,0.489 0.081,0.993 0.146,1.515 0.26,2.67 0.897,5.259 1.908,7.768 1.01,2.507 2.283,4.837 3.816,6.985 1.533,2.15 3.328,4.088 5.383,5.814 2.055,1.725 4.289,3.176 6.704,4.348 5.022,2.346 10.308,3.305 15.852,2.883 5.545,-0.425 10.635,-2.199 15.268,-5.325"
             style="fill:#abadac;fill-opacity:1;fill-rule:nonzero;stroke:none"
             id="path46"
             inkscape:connector-curvature="0" /></g><g
           id="g48"
           transform="translate(239.9375,295.709)"><path
             d="m 0,0 c 0,3.347 -0.806,6.437 -2.415,9.271 0,0.065 -0.017,0.112 -0.048,0.147 -0.033,0.031 -0.049,0.08 -0.049,0.145 -0.258,0.385 -0.514,0.771 -0.773,1.159 -0.258,0.385 -0.516,0.739 -0.772,1.061 -1.739,2.256 -3.897,4.026 -6.47,5.314 -2.577,1.286 -5.411,1.931 -8.5,1.931 -3.093,0 -5.943,-0.692 -8.551,-2.077 -2.607,-1.387 -4.779,-3.203 -6.519,-5.457 C -35.32,9.883 -36.271,8.113 -36.946,6.182 -37.623,4.25 -37.962,2.188 -37.962,0 l 0,-7.148 c 2.512,1.802 5.28,3.203 8.309,4.203 3.024,0.996 6.214,1.496 9.561,1.496 l 1.065,0 m 0,32.553 c 4.312,0 8.353,-0.823 12.12,-2.464 C -3.14,26.998 0.146,24.775 2.946,21.976 5.747,19.174 7.971,15.873 9.611,12.073 11.253,8.273 12.074,4.25 12.074,0 l 0,-25.115 c 0,-1.676 -0.579,-3.09 -1.739,-4.25 -1.159,-1.158 -2.576,-1.74 -4.25,-1.74 -1.675,0 -3.106,0.582 -4.298,1.74 C 0.596,-28.205 0,-26.791 0,-25.115 l 0,11.592 -19.027,0 0,0.097 c -0.195,-0.064 -0.55,-0.097 -1.065,-0.097 -2.125,0 -4.153,-0.325 -6.085,-0.967 -1.93,-0.645 -3.685,-1.545 -5.262,-2.703 -1.581,-1.161 -2.948,-2.545 -4.108,-4.155 -1.159,-1.611 -2.028,-3.382 -2.606,-5.312 -0.067,-0.067 -0.098,-0.131 -0.098,-0.195 0,-0.063 -0.033,-0.127 -0.097,-0.192 -0.384,-1.224 -1.093,-2.207 -2.125,-2.945 -1.031,-0.74 -2.219,-1.113 -3.574,-1.113 -1.675,0 -3.091,0.582 -4.25,1.74 -1.159,1.16 -1.739,2.574 -1.739,4.25 l 0,0.869 0,24.246 c 0,3.799 0.643,7.373 1.932,10.722 1.546,4.12 3.866,7.791 6.957,11.011 2.896,2.898 6.228,5.183 9.997,6.857 3.765,1.677 7.806,2.514 12.123,2.514"
             style="fill:#186dbf;fill-opacity:1;fill-rule:nonzero;stroke:none"
             id="path50"
             inkscape:connector-curvature="0" /></g><g
           id="g52"
           transform="translate(317.1992,274.7949)"><path
             d="m 0,0 c 1.16,-1.127 1.74,-2.527 1.74,-4.201 0,-1.676 -0.58,-3.09 -1.74,-4.25 -1.159,-1.16 -2.575,-1.738 -4.249,-1.738 l -50.81,0 c -1.673,0 -3.089,0.578 -4.25,1.738 -1.158,1.16 -1.738,2.574 -1.738,4.25 0,1.222 0.355,2.383 1.064,3.478 l 0.579,0.578 40.182,40.282 -33.324,0 c -1.676,0 -3.076,0.562 -4.202,1.689 -1.127,1.127 -1.69,2.528 -1.69,4.202 0,1.675 0.563,3.091 1.69,4.25 1.126,1.16 2.526,1.74 4.202,1.74 l 47.91,0 c 1.674,0 3.074,-0.58 4.202,-1.74 1.125,-1.159 1.69,-2.575 1.69,-4.25 0,-1.223 -0.354,-2.382 -1.062,-3.477 -0.13,-0.129 -0.275,-0.291 -0.435,-0.483 -0.162,-0.193 -0.338,-0.386 -0.531,-0.58 l -17.676,-17.676 0,0.096 -22.218,-22.217 36.417,0 C -2.575,1.691 -1.159,1.127 0,0"
             style="fill:#286bbd;fill-opacity:1;fill-rule:nonzero;stroke:none"
             id="path54"
             inkscape:connector-curvature="0" /></g><g
           id="g56"
           transform="translate(329.0674,326.8125)"><path
             d="M 0,0 C 1.674,0 3.106,-0.597 4.299,-1.787 5.49,-2.979 6.086,-4.412 6.086,-6.086 l 0,-49.844 c 0,-1.674 -0.596,-3.107 -1.787,-4.297 C 3.106,-61.42 1.674,-62.014 0,-62.014 c -1.675,0 -3.091,0.594 -4.25,1.787 -1.159,1.19 -1.738,2.623 -1.738,4.297 l 0,49.844 c 0,1.674 0.579,3.107 1.738,4.299 C -3.091,-0.597 -1.675,0 0,0"
             style="fill:#186dbf;fill-opacity:1;fill-rule:nonzero;stroke:none"
             id="path58"
             inkscape:connector-curvature="0" /></g><g
           id="g60"
           transform="translate(183.9854,324.9766)"><path
             d="M 0,0 C -1.16,1.159 -2.577,1.738 -4.25,1.738 -5.926,1.738 -7.326,1.159 -8.452,0 -9.58,-1.159 -10.143,-2.577 -10.143,-4.25 l 0,-35.836 -7.803,7.822 c -3.149,3.157 -6.969,4.735 -11.466,4.735 -2.185,0 -4.272,-0.403 -6.264,-1.207 -1.992,-0.807 -3.725,-1.981 -5.202,-3.528 l -7.708,-7.726 0,35.74 c 0,1.674 -0.586,3.091 -1.754,4.25 -1.168,1.158 -2.595,1.738 -4.283,1.738 -1.687,0 -3.117,-0.58 -4.285,-1.738 -1.169,-1.159 -1.752,-2.576 -1.752,-4.25 l 0,-50.133 c 0,-1.676 0.58,-3.09 1.739,-4.25 1.158,-1.16 2.574,-1.738 4.25,-1.738 1.223,0 2.382,0.351 3.478,1.062 l 0,-0.095 17.772,17.869 c 1.094,1.094 2.415,1.64 3.961,1.64 1.415,0 2.704,-0.515 3.862,-1.543 l 17.196,-17.291 0.771,-0.675 0.097,0.095 c 1.029,-0.711 2.125,-1.062 3.284,-1.062 1.673,0 3.09,0.578 4.25,1.738 1.159,1.16 1.738,2.574 1.738,4.25 l 0,50.133 C 1.738,-2.577 1.159,-1.159 0,0"
             style="fill:#186dbf;fill-opacity:1;fill-rule:nonzero;stroke:none"
             id="path62"
             inkscape:connector-curvature="0" /></g><g
           id="g64"
           transform="translate(90.333,325.2861)"><path
             d="m 0,0 c -6.266,-8.056 -10.053,-18.179 -10.053,-29.126 0,-11.43 4.063,-21.896 10.81,-30.158 1.309,-1.584 3.721,-1.791 5.233,-0.346 l 0.827,0.76 c 1.377,1.307 1.514,3.51 0.344,4.955 -5.508,6.748 -8.812,15.355 -8.812,24.721 0,9.019 3.097,17.351 8.192,23.961 1.171,1.515 0.964,3.649 -0.48,4.888 L 5.233,0.413 C 3.718,1.858 1.31,1.653 0,0"
             style="fill:#f35e19;fill-opacity:1;fill-rule:nonzero;stroke:none"
             id="path66"
             inkscape:connector-curvature="0" /></g><g
           id="g68"
           transform="translate(99.4219,316.335)"><path
             d="m 0,0 c -4.062,-5.715 -6.472,-12.669 -6.472,-20.175 0,-7.849 2.618,-15.148 7.023,-21.002 1.308,-1.72 3.787,-1.996 5.371,-0.48 l 0.826,0.758 c 1.377,1.306 1.517,3.373 0.413,4.888 -3.305,4.407 -5.302,9.914 -5.302,15.836 0,5.715 1.79,11.017 4.889,15.285 1.033,1.516 0.757,3.582 -0.62,4.752 L 5.304,0.551 C 3.787,2.065 1.31,1.722 0,0"
             style="fill:#f35e19;fill-opacity:1;fill-rule:nonzero;stroke:none"
             id="path70"
             inkscape:connector-curvature="0" /></g><g
           id="g72"
           transform="translate(109.4746,307.0391)"><path
             d="m 0,0 c -1.928,-3.166 -3.028,-6.886 -3.028,-10.879 0,-4.199 1.238,-8.193 3.372,-11.498 1.24,-1.93 3.856,-2.273 5.51,-0.758 l 0.827,0.758 c 1.237,1.17 1.584,3.098 0.618,4.543 -1.238,1.998 -1.997,4.408 -1.997,6.955 0,2.342 0.62,4.545 1.721,6.473 0.895,1.514 0.622,3.373 -0.688,4.545 L 5.508,0.896 C 3.856,2.342 1.171,1.928 0,0"
             style="fill:#f35e19;fill-opacity:1;fill-rule:nonzero;stroke:none"
             id="path74"
             inkscape:connector-curvature="0" /></g><g
           id="g76"
           transform="translate(346.8457,292.4639)"><path
             d="m 0,0 0,-1.294 0,-1.484 c -0.872,-0.125 -1.684,-0.219 -2.453,-0.293 -0.768,-0.075 -1.494,-0.129 -2.193,-0.167 -0.701,-0.04 -1.373,-0.063 -2.038,-0.076 -0.664,-0.013 -1.318,-0.013 -1.983,0 -0.665,0.013 -1.338,0.036 -2.038,0.076 -0.699,0.038 -1.425,0.092 -2.194,0.167 -0.768,0.074 -1.581,0.168 -2.452,0.293 l 0,1.484 0,1.294 0,1.484 c 0.871,-0.124 1.684,-0.218 2.452,-0.293 0.769,-0.074 1.495,-0.127 2.194,-0.167 0.7,-0.038 1.373,-0.064 2.038,-0.074 0.665,-0.012 1.319,-0.012 1.983,0 0.665,0.01 1.337,0.036 2.038,0.074 0.699,0.04 1.425,0.093 2.193,0.167 C -1.684,1.266 -0.872,1.36 0,1.484 L 0,0 Z M 7.311,5.444 C 3.429,3.842 -1.852,2.873 -7.676,2.869 c -5.829,0.004 -11.104,0.973 -14.988,2.575 -2.7,1.123 -4.768,2.577 -5.788,4.304 l 0,-5.622 c 0,-4.747 9.302,-8.594 20.776,-8.594 11.475,0 20.778,3.847 20.778,8.594 l 0,5.628 C 12.084,8.023 10.014,6.567 7.311,5.444"
             style="fill:#f35e19;fill-opacity:1;fill-rule:nonzero;stroke:none"
             id="path78"
             inkscape:connector-curvature="0" /></g><g
           id="g80"
           transform="translate(346.8457,292.4639)"><path
             d="m 0,0 0,-1.294 0,-1.484 c -0.872,-0.125 -1.684,-0.219 -2.453,-0.293 -0.768,-0.075 -1.494,-0.129 -2.193,-0.167 -0.701,-0.04 -1.373,-0.063 -2.038,-0.076 -0.664,-0.013 -1.318,-0.013 -1.983,0 -0.665,0.013 -1.338,0.036 -2.038,0.076 -0.699,0.038 -1.425,0.092 -2.194,0.167 -0.768,0.074 -1.581,0.168 -2.452,0.293 l 0,1.484 0,1.294 0,1.484 c 0.871,-0.124 1.684,-0.218 2.452,-0.293 0.769,-0.074 1.495,-0.127 2.194,-0.167 0.7,-0.038 1.373,-0.064 2.038,-0.074 0.665,-0.012 1.319,-0.012 1.983,0 0.665,0.01 1.337,0.036 2.038,0.074 0.699,0.04 1.425,0.093 2.193,0.167 C -1.684,1.266 -0.872,1.36 0,1.484 L 0,0 Z"
             style="fill:#ffffff;fill-opacity:1;fill-rule:nonzero;stroke:none"
             id="path82"
             inkscape:connector-curvature="0" /></g><g
           id="g84"
           transform="translate(334.8926,340.3047)"><path
             d="m 0,0 c 0,-3.262 -2.645,-5.906 -5.907,-5.906 -3.262,0 -5.906,2.644 -5.906,5.906 0,3.262 2.644,5.907 5.906,5.907 C -2.645,5.907 0,3.262 0,0"
             style="fill:#f35e19;fill-opacity:1;fill-rule:nonzero;stroke:none"
             id="path86"
             inkscape:connector-curvature="0" /></g></g></g></g></svg>